<svg xmlns="http://www.w3.org/2000/svg" viewBox="0 0 760 488" width="760" height="488" role="img" font-family="ui-monospace, monospace">
<rect width="760" height="488" fill="#0a0d12"/>
<text x="96" y="24" fill="#eff2f6" font-size="15" font-weight="600">Presupuesto de diseño por escena — §4.3</text><text x="96" y="42" fill="#82868e" font-size="11">Nodos de contenido ≤ 6 · Caracteres de apoyo ≤ 280</text><text x="96" y="56" fill="#82868e" font-size="11">3/7 escenas cumplen · contenido fixture, no definitivo</text><text x="96" y="70" fill="#b4b8be" font-size="11" font-weight="600">nodos</text><text x="424" y="70" fill="#b4b8be" font-size="11" font-weight="600">caracteres</text><text x="86" y="93" fill="#eff2f6" font-size="12" font-weight="600" text-anchor="end">identidad</text><rect x="96" y="82" width="59.970370370370375" height="14" fill="#e5484d" rx="2" opacity="0.85"/><line x1="128.7111111111111" y1="79" x2="128.7111111111111" y2="100" stroke="#f9ad00" stroke-width="2"/><text x="161.97037037037038" y="93" fill="#82868e" font-size="11">11</text><rect x="424" y="82" width="31.695640686922065" height="14" fill="#46a758" rx="2" opacity="0.85"/><line x1="478.446499339498" y1="79" x2="478.446499339498" y2="100" stroke="#f9ad00" stroke-width="2"/><text x="461.69564068692205" y="93" fill="#82868e" font-size="11">163</text><text x="736" y="93" fill="#e5484d" font-size="14" font-weight="700" text-anchor="end">✕</text><text x="86" y="145" fill="#b4b8be" font-size="12" font-weight="400" text-anchor="end">perfil</text><rect x="96" y="134" width="27.25925925925926" height="14" fill="#46a758" rx="2" opacity="0.85"/><line x1="128.7111111111111" y1="131" x2="128.7111111111111" y2="152" stroke="#f9ad00" stroke-width="2"/><text x="129.25925925925927" y="145" fill="#82868e" font-size="11">5</text><rect x="424" y="134" width="48.22404227212682" height="14" fill="#46a758" rx="2" opacity="0.85"/><line x1="478.446499339498" y1="131" x2="478.446499339498" y2="152" stroke="#f9ad00" stroke-width="2"/><text x="478.22404227212684" y="145" fill="#82868e" font-size="11">248</text><text x="86" y="197" fill="#eff2f6" font-size="12" font-weight="600" text-anchor="end">experiencia</text><rect x="96" y="186" width="76.32592592592593" height="14" fill="#e5484d" rx="2" opacity="0.85"/><line x1="128.7111111111111" y1="183" x2="128.7111111111111" y2="204" stroke="#f9ad00" stroke-width="2"/><text x="178.32592592592593" y="197" fill="#82868e" font-size="11">14</text><rect x="424" y="186" width="147.20000000000002" height="14" fill="#e5484d" rx="2" opacity="0.85"/><line x1="478.446499339498" y1="183" x2="478.446499339498" y2="204" stroke="#f9ad00" stroke-width="2"/><text x="577.2" y="197" fill="#82868e" font-size="11">757</text><text x="736" y="197" fill="#e5484d" font-size="14" font-weight="700" text-anchor="end">✕</text><text x="86" y="249" fill="#eff2f6" font-size="12" font-weight="600" text-anchor="end">proyectos</text><rect x="96" y="238" width="65.42222222222223" height="14" fill="#e5484d" rx="2" opacity="0.85"/><line x1="128.7111111111111" y1="235" x2="128.7111111111111" y2="256" stroke="#f9ad00" stroke-width="2"/><text x="167.42222222222222" y="249" fill="#82868e" font-size="11">12</text><rect x="424" y="238" width="103.83725231175696" height="14" fill="#e5484d" rx="2" opacity="0.85"/><line x1="478.446499339498" y1="235" x2="478.446499339498" y2="256" stroke="#f9ad00" stroke-width="2"/><text x="533.837252311757" y="249" fill="#82868e" font-size="11">534</text><text x="736" y="249" fill="#e5484d" font-size="14" font-weight="700" text-anchor="end">✕</text><text x="86" y="301" fill="#eff2f6" font-size="12" font-weight="600" text-anchor="end">stack</text><rect x="96" y="290" width="147.20000000000002" height="14" fill="#e5484d" rx="2" opacity="0.85"/><line x1="128.7111111111111" y1="287" x2="128.7111111111111" y2="308" stroke="#f9ad00" stroke-width="2"/><text x="249.20000000000002" y="301" fill="#82868e" font-size="11">27</text><rect x="424" y="290" width="117.05997357992075" height="14" fill="#e5484d" rx="2" opacity="0.85"/><line x1="478.446499339498" y1="287" x2="478.446499339498" y2="308" stroke="#f9ad00" stroke-width="2"/><text x="547.0599735799208" y="301" fill="#82868e" font-size="11">602</text><text x="736" y="301" fill="#e5484d" font-size="14" font-weight="700" text-anchor="end">✕</text><text x="86" y="353" fill="#b4b8be" font-size="12" font-weight="400" text-anchor="end">formacion</text><rect x="96" y="342" width="27.25925925925926" height="14" fill="#46a758" rx="2" opacity="0.85"/><line x1="128.7111111111111" y1="339" x2="128.7111111111111" y2="360" stroke="#f9ad00" stroke-width="2"/><text x="129.25925925925927" y="353" fill="#82868e" font-size="11">5</text><rect x="424" y="342" width="7.972523117569353" height="14" fill="#46a758" rx="2" opacity="0.85"/><line x1="478.446499339498" y1="339" x2="478.446499339498" y2="360" stroke="#f9ad00" stroke-width="2"/><text x="437.9725231175694" y="353" fill="#82868e" font-size="11">41</text><text x="86" y="405" fill="#b4b8be" font-size="12" font-weight="400" text-anchor="end">contacto</text><rect x="96" y="394" width="32.711111111111116" height="14" fill="#46a758" rx="2" opacity="0.85"/><line x1="128.7111111111111" y1="391" x2="128.7111111111111" y2="412" stroke="#f9ad00" stroke-width="2"/><text x="134.7111111111111" y="405" fill="#82868e" font-size="11">6</text><rect x="424" y="394" width="7.5836195508586535" height="14" fill="#46a758" rx="2" opacity="0.85"/><line x1="478.446499339498" y1="391" x2="478.446499339498" y2="412" stroke="#f9ad00" stroke-width="2"/><text x="437.58361955085866" y="405" fill="#82868e" font-size="11">39</text><text x="96" y="462" fill="#82868e" font-size="10">▬ dentro del límite   ▬ fuera del límite   | línea ámbar = umbral (§4.3)</text><text x="96" y="478" fill="#82868e" font-size="10">Fuente: datos-diseno.json · 7 escenas del shell · el contenido real aún no existe (SEG-30)</text>
</svg>
